<?xml version="1.0"?><svg xmlns="http://www.w3.org/2000/svg" xmlns:xlink="http://www.w3.org/1999/xlink" width="1024" height="1024" viewBox="0 0 1024 1024"><path fill="#FCFCFB" d="M0 0L1024 0L1024 1024L0 1024L0 0Z"></path><path fill="#222223" d="M208.621 579.292C211.996 571.535 216.753 564.634 225.007 561.595C261.974 547.986 292.479 606.202 251.653 622.078C258.111 643.528 260.124 657.594 249.436 678.128C255.824 673.041 265.036 663.326 271.355 657.366C271.29 650.999 269.251 632.152 279.246 633.354C282.088 633.695 286.628 642.454 289.517 645.246C298.453 635.947 310.044 631.528 320.41 642.113C324.403 646.273 326.494 651.901 326.185 657.659C326.021 660.953 325.131 665.03 323.075 667.592C315.104 677.525 304.428 687.837 295.524 697.012L235.601 758.418C248.828 777.731 248.957 792.381 245.292 814.919C249.244 816.962 252 818.258 256.123 819.912C265.715 816.566 273.719 811.329 283.794 812.217C287.788 812.762 289.473 813.172 293.125 815.137C298.032 817.894 302.448 822.67 303.719 828.285C308.933 851.322 291.833 885.986 269.348 894.324C263.749 896.4 252.19 890.036 246.857 887.555L214.591 872.574C211.39 871.08 200.6 865.56 197.876 865.038C188.223 863.185 176.101 864.894 166.136 864.146C158.908 863.603 151.562 868.27 145.082 871.39C135.169 876.14 125.296 880.971 115.463 885.883C104.968 891.084 94.3449 897.577 82.847 890.209C68.746 881.172 59.7034 864.918 55.4573 849.06C52.7884 839.093 52.6261 824.234 61.6671 817.219C64.7829 814.262 68.0936 812.892 72.2534 812.095C73.6186 811.822 74.9951 811.61 76.379 811.458C88.3522 813.359 90.3361 815.651 101.058 819.152C105.334 817.427 108.084 816.032 112.182 813.861C104.194 806.938 95.1074 797.638 96.1957 786.099C99.0339 756.006 117.53 729.086 138.769 708.874C122.106 701.616 109.774 690.714 102.335 674.08C98.4222 663.119 97.95 656.629 99.0145 644.964C99.3765 640.997 103.887 628.509 103.368 626.899C96.0825 624.416 89.4384 618.3 86.0299 611.434C82.4617 604.189 81.9317 595.82 84.5575 588.184C93.2116 562.631 131.022 552.06 144.325 580.401C144.562 580.904 144.795 581.408 145.024 581.913C167.808 573.108 185.231 571.646 208.621 579.292Z"></path><path fill="#7E7F81" d="M272.527 657.552C272.386 650.936 269.832 633.049 280.25 634.912C280.648 635.189 280.744 635.275 281.088 635.616C282.207 637.247 282.516 637.678 283.296 639.468C284.025 639.912 284.044 640.323 284.415 641.19L285.288 642.323C285.922 642.856 285.89 642.877 286.342 643.587L287.49 644.785C288.445 645.357 288.469 645.47 289.271 646.351L290.409 646.312C294.078 642.13 297.064 639.392 302.462 637.816C302.854 637.646 302.866 637.647 303.285 637.583C309.328 637.161 313.263 637.406 318.345 641.637C322.436 645.015 324.938 649.941 325.253 655.237C326.008 666.528 315.166 675.644 307.58 682.858C307.26 683.347 307.332 683.239 306.821 683.609C304.118 686.45 297.655 693.572 294.921 695.896C294.152 696.887 293.451 697.919 292.363 698.559C283.824 707.568 275.195 716.491 266.479 725.328C261.354 730.622 255.255 737.353 250.045 742.344C249.467 743.239 244.782 748.031 243.968 748.574C242.065 750.607 235.131 757.175 234.391 758.538L234.91 759.479C235.737 760.47 236.084 760.865 236.733 761.983L237.125 762.667C238.125 764.425 238.192 764.727 239.569 766.553C247.934 782.581 247.927 798.073 243.968 815.401C248.033 817.373 252.117 819.306 256.218 821.2C260.654 819.294 277.631 810.987 282.018 813.62C282.548 813.359 282.931 813.084 283.346 812.661L283.794 812.217C287.788 812.762 289.473 813.172 293.125 815.137C298.032 817.894 302.448 822.67 303.719 828.285C308.933 851.322 291.833 885.986 269.348 894.324C263.749 896.4 252.19 890.036 246.857 887.555L214.591 872.574C211.39 871.08 200.6 865.56 197.876 865.038C188.223 863.185 176.101 864.894 166.136 864.146C158.908 863.603 151.562 868.27 145.082 871.39C135.169 876.14 125.296 880.971 115.463 885.883C104.968 891.084 94.3449 897.577 82.847 890.209C68.746 881.172 59.7034 864.918 55.4573 849.06C52.7884 839.093 52.6261 824.234 61.6671 817.219C64.7829 814.262 68.0936 812.892 72.2534 812.095C73.6186 811.822 74.9951 811.61 76.379 811.458C76.7652 812.357 76.7192 812.57 77.4257 813.141C87.3876 813.626 91.8132 817.014 100.689 820.218C105.171 818.395 108.932 816.581 113.281 814.683C119.466 819.261 125.456 822.628 131.542 826.956C133.786 828.552 138.326 836.09 141.035 838.815C152.849 850.697 169.47 856.153 186.001 853.865C196.748 852.377 203.354 848.759 211.845 842.683C212.141 842.386 212.086 842.402 212.452 842.238C230.755 825.421 237.687 803.644 234.853 779.057C234.675 778.614 234.685 778.663 234.723 778.194C232.745 763.302 227.213 751.583 217.586 740.057C216.918 739.638 214.37 737.09 213.943 736.416C204.156 727.957 195.839 723.46 182.666 722.186C169.887 720.95 156.676 725.267 146.862 733.632C146.191 734.377 143.14 737.571 142.393 738.059C133.74 748.634 130.594 755.398 127.147 768.5C125.454 767.606 124.473 766.839 122.586 766.957C124.044 768.328 130.059 771.018 132.207 772.228C148.875 781.619 182.431 791.038 183.183 814.615C183.386 820.604 181.102 826.41 176.873 830.655C175.534 831.995 174.552 832.746 173.009 833.79C172.454 833.905 172.479 833.89 172.068 834.286C161.278 840.782 150.085 834.893 140.34 829.84C138.348 829.103 137.27 828.633 135.534 827.388C128.636 823.55 116.623 816.684 111.006 811.21C110.13 810.795 109.964 810.705 109.434 809.926C107.616 808.424 106.175 806.792 104.561 805.078C103.952 804.636 103.898 804.474 103.486 803.831C97.8088 795.96 96.9758 792.236 97.6347 782.924C97.8082 782.302 97.7894 782.326 97.8332 781.675C98.8882 760.125 122.755 721.696 140.545 709.594C154.11 715.358 169.741 718.582 184.534 717.88C193.987 717.432 208.655 713.999 216.986 709.303C226.324 704.04 233.83 694.411 241.779 687.176C249.075 680.536 256.145 673.581 263.158 666.643C266.248 663.586 269.661 660.809 272.527 657.552Z"></path><path fill="#222223" d="M293.125 815.137C298.032 817.894 302.448 822.67 303.719 828.285C308.933 851.322 291.833 885.986 269.348 894.324C263.749 896.4 252.19 890.036 246.857 887.555L214.591 872.574C211.39 871.08 200.6 865.56 197.876 865.038C188.223 863.185 176.101 864.894 166.136 864.146C158.908 863.603 151.562 868.27 145.082 871.39C135.169 876.14 125.296 880.971 115.463 885.883C104.968 891.084 94.3449 897.577 82.847 890.209C68.746 881.172 59.7034 864.918 55.4573 849.06C52.7884 839.093 52.6261 824.234 61.6671 817.219L62.4145 817.452C65.7692 817.157 68.7827 816.938 72.0933 817.895C90.5231 823.227 104.992 849.389 105.584 867.393C105.477 869.938 105.468 872.486 105.556 875.032C105.215 882.263 102.746 886.851 98.6405 892.431C105.869 889.67 115.327 884.805 122.451 881.365C132.788 876.373 143.965 871.211 154.07 865.87C155.215 865.09 156.139 864.43 157.492 864.047C163.905 861.861 188.206 863.226 195.918 863.551C198.809 863.672 214.829 871.516 218.596 873.272C229.142 878.27 239.76 883.117 250.445 887.811C251.103 888.735 254.828 890.221 255.991 890.663L256.488 890.734C256.624 889.988 254.36 884.822 254.003 883.247C249.398 862.801 257.573 839.947 272.814 825.858C280.732 818.538 285.113 817.927 295.428 818.382L295.785 817.94C293.796 816.906 293.356 816.775 291.177 816.151C291.91 815.733 292.354 815.505 293.125 815.137Z"></path><path fill="#5F6062" d="M154.07 865.87C155.215 865.09 156.139 864.43 157.492 864.047C156.303 865.215 155.716 865.27 154.07 865.87Z"></path><path fill="#C3C3C3" d="M263.957 893.835C254.498 890.831 253.557 879.89 253.74 871.375C253.964 854.719 260.859 838.85 272.881 827.321C280.33 820.23 292.209 814.131 300.552 823.379C301.47 824.197 301.747 825.233 302.166 826.373C309.985 847.357 289.461 889.13 266.973 893.766C265.739 894.288 265.289 894.106 263.957 893.835Z"></path><path fill="#5F6062" d="M263.957 893.835C265.457 893.554 265.493 893.456 266.973 893.766C265.739 894.288 265.289 894.106 263.957 893.835Z"></path><path fill="#7E7F81" d="M300.552 823.379C301.47 824.197 301.747 825.233 302.166 826.373C301.312 825.339 300.834 824.716 300.552 823.379Z"></path><path fill="#C3C3C3" d="M62.7683 818.704C74.5674 817.086 80.7519 822.204 88.4524 830.26C101.408 843.813 113.46 877.855 96.4606 892.437C69.4345 894.909 40.8216 834.08 62.7683 818.704Z"></path><path fill="#191B20" d="M61.6671 817.219C64.7829 814.262 68.0936 812.892 72.2534 812.095C73.6186 811.822 74.9951 811.61 76.379 811.458C76.7652 812.357 76.7192 812.57 77.4257 813.141C79.7396 814.405 84.7891 816.698 85.9498 819.264C86.2554 819.94 85.9194 821.31 85.0042 821.053C77.2408 818.874 70.3719 811.849 62.4145 817.452L61.6671 817.219Z"></path><path fill="#191B20" d="M283.794 812.217C287.788 812.762 289.473 813.172 293.125 815.137C292.354 815.505 291.91 815.733 291.177 816.151C288.741 816.51 286.752 816.545 284.306 817.203C281.394 817.941 278.313 819.686 275.783 821.299C272.767 823.222 271.548 820.692 273.741 818.522C275.601 816.682 277.855 815.421 280.249 814.382L282.018 813.62C282.548 813.359 282.931 813.084 283.346 812.661L283.794 812.217Z"></path><path fill="#727376" d="M243.968 748.574C244.426 747.19 248.761 742.587 250.045 742.344C249.467 743.239 244.782 748.031 243.968 748.574Z"></path><path fill="#727376" d="M213.943 736.416C215.046 736.522 217.475 738.902 217.586 740.057C216.918 739.638 214.37 737.09 213.943 736.416Z"></path><path fill="#5F6062" d="M105.584 867.393C106.261 870.385 106.256 872.071 105.556 875.032C105.468 872.486 105.477 869.938 105.584 867.393Z"></path><path fill="#5F6062" d="M250.445 887.811C252.231 888.244 254.653 889.402 255.991 890.663C254.828 890.221 251.103 888.735 250.445 887.811Z"></path><path fill="#5F6062" d="M142.393 738.059C143.046 736.506 145.277 734.467 146.862 733.632C146.191 734.377 143.14 737.571 142.393 738.059Z"></path><path fill="#5F6062" d="M135.534 827.388C137.705 828.216 138.413 828.243 140.149 829.684L140.34 829.84C138.348 829.103 137.27 828.633 135.534 827.388Z"></path><path fill="#727376" d="M292.363 698.559C293.011 697.166 293.659 696.808 294.921 695.896C294.152 696.887 293.451 697.919 292.363 698.559Z"></path><path fill="#727376" d="M109.434 809.926C110.431 810.292 110.482 810.262 111.006 811.21C110.13 810.795 109.964 810.705 109.434 809.926Z"></path><path fill="#5F6062" d="M103.486 803.831L103.818 804.008C104.339 804.273 104.36 804.507 104.561 805.078C103.952 804.636 103.898 804.474 103.486 803.831Z"></path><path fill="#7E7F81" d="M142.558 584.605C143.206 584.213 143.733 583.917 144.422 583.599C166.536 573.392 187.282 572.636 210.005 580.649C228.453 588.945 241.401 600.592 249.399 619.465C264.763 659.66 252.576 678.771 222.567 704.065C219.05 707.03 214.285 709.729 210.016 711.297C207.568 712.176 205.068 712.9 202.53 713.465C214.534 705.123 225.583 695.288 216.184 679.552C215.911 679.364 215.896 679.255 215.709 678.934C207.657 669.278 196.695 662.71 183.655 661.226C165.882 659.203 141.598 671.709 139.53 691.121C139.028 695.829 141.243 699.712 143.657 703.597C145.141 704.949 146.549 706.383 147.874 707.892C150.897 710.274 154.702 712.398 158.055 714.269C136.688 709.196 113.268 696.764 104.345 675.627C103.86 674.478 104.111 674.359 103.078 673.461L102.335 674.08C98.4222 663.119 97.95 656.629 99.0145 644.964C99.3765 640.997 103.887 628.509 103.368 626.899L103.333 626.111L104.378 625.448C104.835 623.722 100.393 619.403 99.1957 617.528C85.5682 596.181 109.032 568.801 132.501 577.993C136.143 579.42 138.293 581.621 141.338 583.658L142.056 584.134L142.558 584.605Z"></path><path fill="#191B20" d="M103.333 626.111L104.378 625.448C104.835 623.722 100.393 619.403 99.1957 617.528C85.5682 596.181 109.032 568.801 132.501 577.993C136.143 579.42 138.293 581.621 141.338 583.658L142.056 584.134L142.558 584.605C139.147 586.556 135.652 588.548 132.453 590.828C108.711 607.746 91.9112 645.115 103.078 673.461L102.335 674.08C98.4222 663.119 97.95 656.629 99.0145 644.964C99.3765 640.997 103.887 628.509 103.368 626.899L103.333 626.111Z"></path><path fill="#727376" d="M143.657 703.597C145.141 704.949 146.549 706.383 147.874 707.892C145.623 706.535 145.476 706.398 144.123 704.309L143.657 703.597Z"></path><path fill="#191B20" d="M201.172 645.236C206.691 643.823 212.309 647.15 213.725 652.667C215.14 658.184 211.817 663.805 206.3 665.223C200.78 666.643 195.154 663.316 193.737 657.795C192.321 652.273 195.65 646.65 201.172 645.236Z"></path><path fill="#191B20" d="M146.932 646.867C150.554 646.049 154.335 647.242 156.831 649.991C159.326 652.74 160.149 656.619 158.985 660.145C157.821 663.67 154.849 666.296 151.207 667.018C145.679 668.115 140.297 664.565 139.127 659.052C137.958 653.539 141.435 648.11 146.932 646.867Z"></path><path fill="#7E7F81" d="M219.837 565.738C231.568 556.569 248.285 560.345 258.367 570.077C259.619 571.755 260.749 572.856 262.384 574.167C267.958 580.948 270.708 587.912 269.918 596.768C269.173 604.836 265.149 612.246 258.786 617.263C256.766 618.853 253.887 620.778 251.237 620.589L250.813 620.195L249.399 619.465C241.401 600.592 228.453 588.945 210.005 580.649L210.313 580.24C209.552 575.289 215.676 569.086 219.298 566.158C219.538 565.911 219.529 565.893 219.837 565.738Z"></path><path fill="#191B20" d="M210.313 580.24C212.328 580.353 212.355 579.982 214.141 578.659C230.839 566.292 254.917 575.644 258.453 596.252C260.128 606.012 255.704 612.296 250.813 620.195L249.399 619.465C241.401 600.592 228.453 588.945 210.005 580.649L210.313 580.24Z"></path><path fill="#7E7F81" d="M96.8244 572.805C108.245 563.406 122.232 561.166 134.865 569.921C138.739 572.605 143.915 577.755 143.627 582.757C142.978 583.381 142.782 583.604 142.056 584.134L141.338 583.658C138.293 581.621 136.143 579.42 132.501 577.993C109.032 568.801 85.5682 596.181 99.1957 617.528C100.393 619.403 104.835 623.722 104.378 625.448L103.333 626.111C86.7728 619.668 78.8951 599.635 87.3829 583.945C89.9539 579.193 92.2979 576.742 96.312 573.217C96.5409 572.969 96.5246 572.959 96.8244 572.805Z"></path><path fill="#5F6062" d="M258.367 570.077C260.315 571.551 260.963 572.224 262.384 574.167C260.749 572.856 259.619 571.755 258.367 570.077Z"></path><path fill="#5F6062" d="M237.125 762.667C238.292 763.741 238.93 765.138 239.569 766.553C238.192 764.727 238.125 764.425 237.125 762.667Z"></path><path fill="#C3C3C3" d="M174.079 723.188C207.395 718.927 232.032 752.015 234.16 782.562C236.48 815.865 218.683 850.287 182.406 853.309C167.467 854.553 154.791 849.378 143.593 839.785C139.174 835.577 136.957 832.758 133.551 827.715C144.895 832.478 154.954 841.512 168.429 837.256C174.38 835.398 179.28 831.131 181.939 825.491C189.423 809.98 177.629 794.6 164.673 786.965C159.918 784.164 154.718 781.904 149.746 779.498L128.098 768.852C134.081 744.808 148.19 726.19 174.079 723.188Z"></path><path fill="#C3C3C3" d="M176.687 662.204C188.511 660.967 198.439 665.4 207.59 672.198C226.123 685.966 219.403 703.694 201.22 712.734C194.757 715.948 190.785 716.353 183.625 716.979C170.712 717.252 160.766 716.283 150.215 708.444C128.588 692.374 146.397 671.536 164.878 664.628C169.088 663.055 172.233 662.641 176.687 662.204Z"></path><path fill="#191B20" d="M172.797 669.096C179.942 668.558 194.345 668.717 197.13 676.989C199.488 683.996 189.076 688.088 184.657 690.175L179.394 692.406C175.054 690.531 162.865 685.081 161.729 680.193C159.845 672.08 166.226 670.264 172.797 669.096Z"></path><path fill="#222223" d="M220.346 154.825C233.531 125.246 270.323 133.533 280.166 159.758C282.913 166.94 282.614 174.932 279.336 181.888C275.761 189.426 269.913 193.939 262.574 197.453C276.594 236.204 267.966 260.894 230.596 280.437C244.649 293.831 254.515 307.742 261.275 326.143C267.524 343.154 266.921 355.475 261.486 372.453C264.492 374.079 265.354 374.259 268.621 375.122C274.404 372.931 285.748 368.002 291.148 367.27C291.331 367.189 292.586 367.02 292.827 366.983C296.159 367.054 296.733 367.014 300 367.507C302.189 367.851 304.291 368.616 306.189 369.76C320.29 378.696 319.913 393.964 315.516 408.331C310.471 424.817 293.294 454.387 272.137 448.592C266.663 447.051 259.407 443.602 254.171 441.168L226.503 428.056C224.396 427.064 217.473 423.335 215.401 423.093C200.893 421.399 185.8 422.896 171.177 422.575C163.222 422.401 161.847 425.516 155.743 427.334C136.143 433.17 108.259 458.41 88.9349 444.19C87.6374 443.23 86.3834 442.212 85.1765 441.14C84.1993 440.376 83.7242 439.9 82.87 439.013C82.5878 438.735 82.3006 438.463 82.0083 438.196C79.9427 435.834 77.9712 433.562 76.1051 431.029C64.8104 415.698 52.118 384.772 71.905 370.894C77.7493 367.269 79.716 366.734 86.776 366.922C96.011 368.352 101.31 370.642 109.947 374.431L115.817 372.08C107.512 335.201 122.427 303.675 150.929 280.073C115.975 262.296 104.574 238.282 117.886 200.525C112.153 197.372 106.884 194.649 102.794 189.304C95.5203 179.798 94.9517 167.316 100.869 156.904C105.751 148.299 113.839 141.977 123.368 139.317C130.941 137.261 138.659 138.114 145.494 142.04C151.825 145.676 154.277 150.045 157.772 155.967C180.216 148.987 197.506 146.184 220.346 154.825Z"></path><path fill="#7E7F81" d="M71.905 370.894C77.7493 367.269 79.716 366.734 86.776 366.922C86.7711 367.556 86.7843 367.531 86.9243 368.163C91.3998 367.075 105.397 373.722 109.999 375.705L115.845 373.095C120.969 393.17 125.928 429.099 157.6 419.528C164.053 417.579 167.971 409.629 170.221 403.708C184.357 408.873 191.802 409.976 205.801 405.206C206.241 406.186 206.697 407.159 207.167 408.125C209.939 413.778 214.646 418.105 220.681 420.034C226.254 421.863 232.332 421.343 237.513 418.594C248.028 412.981 251.375 401.319 255.107 390.924C257.231 385.189 259.232 379.409 261.109 373.588C263.531 374.774 265.819 375.631 268.322 376.607C272.897 374.919 277.615 372.598 282.215 370.887C285.47 369.676 288.713 369.107 291.855 367.754L291.148 367.27C291.331 367.189 292.586 367.02 292.827 366.983C296.159 367.054 296.733 367.014 300 367.507C302.189 367.851 304.291 368.616 306.189 369.76C320.29 378.696 319.913 393.964 315.516 408.331C310.471 424.817 293.294 454.387 272.137 448.592C266.663 447.051 259.407 443.602 254.171 441.168L226.503 428.056C224.396 427.064 217.473 423.335 215.401 423.093C200.893 421.399 185.8 422.896 171.177 422.575C163.222 422.401 161.847 425.516 155.743 427.334C136.143 433.17 108.259 458.41 88.9349 444.19C87.6374 443.23 86.3834 442.212 85.1765 441.14C84.1993 440.376 83.7242 439.9 82.87 439.013C82.5878 438.735 82.3006 438.463 82.0083 438.196C79.9427 435.834 77.9712 433.562 76.1051 431.029C64.8104 415.698 52.118 384.772 71.905 370.894Z"></path><path fill="#C3C3C3" d="M71.905 370.894L72.4295 371.207L72.6295 371.943C76.4284 372.11 78.8867 372.029 82.3138 373.86L82.8665 374.67L83.5093 374.903C97.9723 383.448 106.324 396.256 110.701 412.334C113.391 422.217 114.566 442.697 103.353 447.73C101.298 447.531 101.073 447.494 99.0594 447.698C93.2516 446.3 90.3943 444.091 86.024 440.41L85.1765 441.14C84.1993 440.376 83.7242 439.9 82.87 439.013C82.5878 438.735 82.3006 438.463 82.0083 438.196C79.9427 435.834 77.9712 433.562 76.1051 431.029C64.8104 415.698 52.118 384.772 71.905 370.894Z"></path><path fill="#222223" d="M71.905 370.894L72.4295 371.207L72.6295 371.943C76.4284 372.11 78.8867 372.029 82.3138 373.86L82.8665 374.67C71.7412 371.569 64.4855 374.402 62.9713 386.933C62.9912 388.261 63.0034 393.109 62.8219 394.355C64.6592 411.912 70.7897 423.525 82.1461 436.808L82.0083 438.196C79.9427 435.834 77.9712 433.562 76.1051 431.029C64.8104 415.698 52.118 384.772 71.905 370.894Z"></path><path fill="#7E7F81" d="M62.9713 386.933C62.9912 388.261 63.0034 393.109 62.8219 394.355C61.9052 392.741 62.4876 388.783 62.9713 386.933Z"></path><path fill="#5F6062" d="M84.2185 438.85L86.024 440.41L85.1765 441.14C84.1993 440.376 83.7242 439.9 82.87 439.013L84.2185 438.85Z"></path><path fill="#191B20" d="M82.1461 436.808C82.8171 437.508 83.5082 438.189 84.2185 438.85L82.87 439.013C82.5878 438.735 82.3006 438.463 82.0083 438.196L82.1461 436.808Z"></path><path fill="#C3C3C3" d="M294.11 377.251C301.286 374.343 309.074 372.07 314.373 379.488C314.764 379.831 314.701 379.849 314.851 380.428C323.511 399.551 306.687 431.673 291.48 443.23C287.154 447.579 274.56 451.775 270.998 444.05C260.254 420.744 273.746 390.202 293.428 377.694L294.11 377.251Z"></path><path fill="#222223" d="M306.189 369.76C320.29 378.696 319.913 393.964 315.516 408.331C310.471 424.817 293.294 454.387 272.137 448.592C266.663 447.051 259.407 443.602 254.171 441.168L226.503 428.056C224.396 427.064 217.473 423.335 215.401 423.093C200.893 421.399 185.8 422.896 171.177 422.575C163.222 422.401 161.847 425.516 155.743 427.334C136.143 433.17 108.259 458.41 88.9349 444.19C87.6374 443.23 86.3834 442.212 85.1765 441.14L86.024 440.41C90.3943 444.091 93.2516 446.3 99.0594 447.698C101.073 447.494 101.298 447.531 103.353 447.73C114.566 442.697 113.391 422.217 110.701 412.334C106.324 396.256 97.9723 383.448 83.5093 374.903C101.241 377.647 117.638 417.012 113.128 433.165C111.186 440.119 110.889 442.312 106.07 447.963C124.153 442.75 143.315 430.635 160.895 423.985C162.472 423.376 163.244 423.194 164.522 422.099C166.128 421.604 167.293 421.568 168.947 421.414C180.72 421.81 192.715 421.357 204.507 421.529C207.598 421.575 210.937 421.518 214.012 421.258C217.578 422.312 219.194 423.157 222.522 424.802C222.821 425.239 222.819 425.166 223.411 425.295C237.413 432.606 257.442 441.811 272.071 447.818C268.644 441.353 267.099 437.939 266.447 430.534C266.556 428.014 266.556 425.491 266.448 422.972C266.751 407.135 277.539 386.67 291.017 378.108C292.373 377.247 292.091 377.364 293.428 377.694C273.746 390.202 260.254 420.744 270.998 444.05C274.56 451.775 287.154 447.579 291.48 443.23C306.687 431.673 323.511 399.551 314.851 380.428C314.701 379.849 314.764 379.831 314.373 379.488C309.074 372.07 301.286 374.343 294.11 377.251C298.408 372.789 304.962 373.546 310.54 374.284C308.533 372.363 307.887 371.945 305.507 370.475L306.189 369.76Z"></path><path fill="#5F6062" d="M99.0594 447.698C101.073 447.494 101.298 447.531 103.353 447.73C101.363 448.088 100.958 448.226 99.0594 447.698Z"></path><path fill="#191B20" d="M292.827 366.983C296.159 367.054 296.733 367.014 300 367.507C302.189 367.851 304.291 368.616 306.189 369.76L305.507 370.475C300.655 371.342 296.498 372.335 292.187 374.797C291.385 375.255 288.215 377.666 287.49 377.43C279.67 374.889 294.261 369.142 295.517 368.197L295.512 367.999C295.139 367.405 294.28 367.349 293.651 367.209L292.827 366.983Z"></path><path fill="#191B20" d="M71.905 370.894C77.7493 367.269 79.716 366.734 86.776 366.922C86.7711 367.556 86.7843 367.531 86.9243 368.163C89.5609 369.394 97.2893 374.354 93.7412 376.935C93.4245 377.165 84.2905 371.34 82.508 371.51C77.3223 370.135 77.2982 368.798 72.4295 371.207L71.905 370.894Z"></path><path fill="#5F6062" d="M168.947 421.414C172.917 420.728 209.862 420.483 214.012 421.258C210.937 421.518 207.598 421.575 204.507 421.529C192.715 421.357 180.72 421.81 168.947 421.414Z"></path><path fill="#5F6062" d="M266.448 422.972C266.556 425.491 266.556 428.014 266.447 430.534C265.704 427.418 265.76 426.124 266.448 422.972Z"></path><path fill="#5F6062" d="M164.522 422.099C163.244 423.194 162.472 423.376 160.895 423.985C162.504 422.807 162.631 422.722 164.522 422.099Z"></path><path fill="#7E7F81" d="M221.836 155.737C221.734 153.313 223.235 150.503 224.677 148.637C234.879 135.431 251.808 133.726 265.055 142.747C265.477 142.939 265.467 143.049 265.736 143.466C266.378 143.726 266.354 143.715 266.925 144.107C273.922 149.104 279.384 156.641 280.767 165.237C281.954 172.271 280.323 179.489 276.227 185.329C273.534 189.119 267.211 195.273 262.58 196.149C261.544 195.584 261.945 195.989 261.394 194.918C260.844 194.118 260.709 194.224 259.773 194.153C266.925 210.569 271.916 227.904 264.971 245.232C256.186 267.151 235.005 279.687 213.07 285.005C245.306 262.831 222.126 234.892 192.379 234.336C191.022 234.525 191.013 234.529 189.662 234.346C184.295 234.804 172.572 236.537 168.998 240.776C168.393 241.693 167.275 242.092 166.278 242.551L166.114 242.802L165.515 242.414C162.519 243.966 162.807 244.091 160.369 246.113C159.622 246.979 158.873 247.971 157.883 248.542C144.651 264.831 151.435 274.207 166.156 284.753C153.334 280.176 141.294 275.643 131.16 265.995C130.111 265.474 129.489 264.597 128.749 263.707L128.364 263.376C127.191 262.338 126.59 261.882 125.835 260.515C117.813 253.315 114.817 241.311 113.717 231.105C113.465 229.683 113.174 226.899 113.794 225.607C113.437 216.506 117.414 205.241 120.373 196.747L119.5 196.882C119.23 197.833 119.211 197.725 118.709 198.603C114.583 199.512 106.762 192.128 104.075 189.156C103.713 188.798 103.729 188.843 103.479 188.404C94.3193 178.169 96.9839 160.557 106.413 151.135C107.08 150.066 107.949 149.464 108.922 148.675C109.718 147.63 112.772 145.315 113.922 144.591C124.728 137.785 136.342 137.406 147.043 144.254C147.435 144.444 147.355 144.397 147.715 144.681C148.964 145.507 150.355 146.323 151.056 147.686C153.329 150.449 155.537 152.712 156.353 156.223C155.885 157.022 156.032 156.959 155.371 157.546L155.891 158.172C176.876 148.891 200.049 147.564 221.455 156.174L221.836 155.737Z"></path><path fill="#191B20" d="M108.922 148.675C109.718 147.63 112.772 145.315 113.922 144.591C124.728 137.785 136.342 137.406 147.043 144.254C147.435 144.444 147.355 144.397 147.715 144.681C148.964 145.507 150.355 146.323 151.056 147.686C153.329 150.449 155.537 152.712 156.353 156.223C155.885 157.022 156.032 156.959 155.371 157.546L155.891 158.172C144.344 165.516 139.809 167.259 130.149 179.131C124.466 186.115 123.898 190.875 120.373 196.747L119.5 196.882C119.23 197.833 119.211 197.725 118.709 198.603C114.583 199.512 106.762 192.128 104.075 189.156C103.713 188.798 103.729 188.843 103.479 188.404C94.3193 178.169 96.9839 160.557 106.413 151.135C107.08 150.066 107.949 149.464 108.922 148.675Z"></path><path fill="#7E7F81" d="M108.922 148.675C109.718 147.63 112.772 145.315 113.922 144.591C124.728 137.785 136.342 137.406 147.043 144.254C147.435 144.444 147.355 144.397 147.715 144.681C148.964 145.507 150.355 146.323 151.056 147.686C153.329 150.449 155.537 152.712 156.353 156.223C155.885 157.022 156.032 156.959 155.371 157.546C147.44 152.52 142.516 147.637 131.081 150.206C123.455 151.926 116.866 156.694 112.848 163.4C105.78 175.196 108.595 188.596 119.5 196.882C119.23 197.833 119.211 197.725 118.709 198.603C114.583 199.512 106.762 192.128 104.075 189.156C103.713 188.798 103.729 188.843 103.479 188.404C94.3193 178.169 96.9839 160.557 106.413 151.135C107.08 150.066 107.949 149.464 108.922 148.675Z"></path><path fill="#5F6062" d="M147.715 144.681C148.964 145.507 150.355 146.323 151.056 147.686C149.801 147.09 148.718 145.723 147.715 144.681Z"></path><path fill="#727376" d="M108.922 148.675C108.062 149.877 107.759 150.63 106.413 151.135C107.08 150.066 107.949 149.464 108.922 148.675Z"></path><path fill="#191B20" d="M221.836 155.737C221.734 153.313 223.235 150.503 224.677 148.637C234.879 135.431 251.808 133.726 265.055 142.747C265.477 142.939 265.467 143.049 265.736 143.466C266.378 143.726 266.354 143.715 266.925 144.107C273.922 149.104 279.384 156.641 280.767 165.237C281.954 172.271 280.323 179.489 276.227 185.329C273.534 189.119 267.211 195.273 262.58 196.149C261.544 195.584 261.945 195.989 261.394 194.918C260.844 194.118 260.709 194.224 259.773 194.153C258.21 191.515 256.987 188.518 255.389 185.801C246.986 171.51 235.936 163.372 221.455 156.174L221.836 155.737Z"></path><path fill="#7E7F81" d="M221.836 155.737C221.734 153.313 223.235 150.503 224.677 148.637C234.879 135.431 251.808 133.726 265.055 142.747C265.477 142.939 265.467 143.049 265.736 143.466C266.378 143.726 266.354 143.715 266.925 144.107C273.922 149.104 279.384 156.641 280.767 165.237C281.954 172.271 280.323 179.489 276.227 185.329C273.534 189.119 267.211 195.273 262.58 196.149C261.544 195.584 261.945 195.989 261.394 194.918C262.576 192.705 264.49 190.547 265.766 188.273C280.16 162.613 247.671 135.677 224.919 154.387C223.888 155.235 223.063 155.425 221.836 155.737Z"></path><path fill="#727376" d="M113.717 231.105C113.465 229.683 113.174 226.899 113.794 225.607C114.081 227.309 113.907 229.385 113.717 231.105Z"></path><path fill="#222223" d="M166.278 242.551C167.284 241.211 167.312 240.686 168.998 240.776C168.393 241.693 167.275 242.092 166.278 242.551Z"></path><path fill="#727376" d="M189.662 234.346C190.559 233.822 191.466 233.849 192.379 234.336C191.022 234.525 191.013 234.529 189.662 234.346Z"></path><path fill="#5F6062" d="M125.835 260.515C127.121 261.083 127.66 262.173 128.364 263.376C127.191 262.338 126.59 261.882 125.835 260.515Z"></path><path fill="#727376" d="M128.749 263.707C129.86 264.477 130.895 264.694 131.16 265.995C130.111 265.474 129.489 264.597 128.749 263.707Z"></path><path fill="#727376" d="M157.883 248.542C158.377 247.222 159.172 246.915 160.369 246.113C159.622 246.979 158.873 247.971 157.883 248.542Z"></path><path fill="#191B20" d="M214.554 217.896C218.193 217.124 221.964 218.39 224.398 221.203C226.832 224.016 227.545 227.929 226.259 231.419C224.972 234.91 221.89 237.424 218.212 237.984C212.75 238.816 207.617 235.153 206.627 229.717C205.637 224.281 209.15 219.044 214.554 217.896Z"></path><path fill="#191B20" d="M159.442 219.709C162.935 218.686 166.709 219.621 169.321 222.156C171.933 224.692 172.98 228.436 172.061 231.959C171.142 235.481 168.399 238.237 164.881 239.173C159.535 240.596 154.039 237.456 152.55 232.128C151.06 226.799 154.132 221.264 159.442 219.709Z"></path><path fill="#7E7F81" d="M151.84 280.687C167.534 287.846 183.845 290.951 200.934 288.85C201.37 288.655 201.322 288.665 201.79 288.684C205.947 287.812 228.405 281.459 229.832 281.477C232.624 283.809 234.473 286.298 237.175 288.262C238.427 289.797 239.389 290.751 240.592 292.401L241.18 293.31C241.524 293.574 241.554 293.667 241.834 294.039C243.578 295.891 244.712 297.374 246.114 299.49C274.005 341.614 266.394 363.777 246.813 407.448C237.545 428.118 200.265 422.127 207.508 390.275C210.525 377.005 238.445 322.87 238.419 315.126L237.695 315.183C235.489 318.986 234.536 322.679 232.625 326.58C227.948 316.316 225.159 309.04 216.281 301.745C192.871 282.51 162.573 291.666 149.372 317.756C147.435 321.586 146.08 325.051 144.578 329.101C143.629 326.848 138.836 313.705 137.959 312.81L137.507 313.271C138.087 317.084 141.225 324.244 142.756 328.026C146.797 338.079 151.07 348.038 155.572 357.894C157.118 361.287 158.656 364.644 160.274 368.105C166.849 382.175 175.723 396.759 165.101 411.587C162.051 415.845 157.48 418.757 152.252 419.474C145.892 420.357 139.448 418.609 134.407 414.634C124.431 406.789 123.182 393.355 119.499 382.273C109.753 352.943 113.823 324.99 132.838 300.339C132.944 300.218 133.049 300.097 133.155 299.975C133.339 299.661 133.323 299.617 133.594 299.43C139.73 291.318 144.272 287.216 151.84 280.687Z"></path><path fill="#5F6062" d="M241.834 294.039C243.578 295.891 244.712 297.374 246.114 299.49C244.369 298.077 242.871 296.021 241.834 294.039Z"></path><path fill="#5F6062" d="M237.175 288.262C238.427 289.797 239.389 290.751 240.592 292.401C239.434 291.431 237.919 290.399 237.416 288.904L237.175 288.262Z"></path><path fill="#C3C3C3" d="M185.016 292.672C208.147 289.37 225.582 308.277 231.875 328.729C226.801 340.856 221.655 352.953 216.437 365.019C210.804 377.988 203.546 389.774 205.8 404.208C200.246 406.288 197.822 406.836 191.92 407.283C183.188 406.997 178.424 405.519 170.23 402.722C173.405 387.441 165.645 376.611 159.345 363.037C154.318 352.398 149.58 341.625 145.134 330.73C151.146 310.401 163.315 295.727 185.016 292.672Z"></path><path fill="#C3C3C3" d="M168.998 240.776C174.679 238.359 179.335 236.55 185.501 235.789C200.959 233.862 219.66 239.743 226.483 254.843C232.236 267.576 220.127 281.903 208.505 285.904C197.111 289.827 179.721 289.901 168.7 284.591C146.735 274.009 146.877 256.631 166.114 242.802L166.278 242.551C167.275 242.092 168.393 241.693 168.998 240.776Z"></path><path fill="#191B20" d="M185.249 242.651C189.095 242.203 197.909 242.514 201.129 244.234C216.359 252.371 201.406 259.951 194.551 263.179C192.992 263.639 191.438 264.101 189.872 264.537C184.767 262.885 173.827 258.411 172.498 252.513C170.833 245.129 179.897 243.448 185.249 242.651Z"></path><path fill="#222223" d="M490.327 147.097C492.213 115.067 529.273 109.748 547.948 131.122C559.182 143.98 556.392 162.452 543.51 173.529C554.325 187.346 563.219 201.884 560.862 220.176C558.24 240.53 546.269 255.622 531.107 268.42C552.402 287.736 572.038 312.444 573.538 342.478C573.863 347.932 573.342 353.404 571.994 358.699C571.694 359.868 570.966 363.285 570.54 364.188C567.188 371.298 574.565 372.48 580.358 370.641C590.17 367.526 595.566 363.763 606.613 364.714C609.622 365.339 610.956 365.884 613.705 367.168C619.437 370.906 623.463 375.002 624.909 382.025C627.887 396.491 621.964 413.405 614.065 425.424C608.143 434.435 594.983 450.072 582.608 446.318C577.437 444.749 570.677 441.169 565.682 438.704C557.153 434.46 548.596 430.272 540.013 426.138C537.664 425.01 529.406 420.937 527.414 420.748C518.4 419.894 506.317 420.545 497.127 420.534C491.428 421.238 484.475 421.091 478.706 420.948C466.543 420.775 429.881 443.804 416.629 446.022C388.997 450.647 358.654 390.78 379.476 370.865C381.629 368.806 383.663 367.673 386.268 366.424C388.221 365.853 390.161 365.265 392.132 364.756C399.569 364.061 405.748 366.441 412.607 369.027C417.67 370.936 420.231 373.092 425.397 370.635C426.276 369.443 426.244 369.064 425.86 367.469C419.431 340.803 426.574 317.766 442.49 295.234C445.001 291.613 447.742 288.157 450.696 284.887C419.242 273.929 407.975 256.373 407.714 223.083C388.055 219.833 373.196 208.19 376.786 186.459C378.453 176.867 383.874 168.336 391.849 162.752C405.399 153.334 420.118 155.609 430.944 167.828C450.112 152.532 466.158 146.925 490.327 147.097Z"></path><path fill="#7E7F81" d="M606.613 364.714C609.622 365.339 610.956 365.884 613.705 367.168C619.437 370.906 623.463 375.002 624.909 382.025C627.887 396.491 621.964 413.405 614.065 425.424C608.143 434.435 594.983 450.072 582.608 446.318C577.437 444.749 570.677 441.169 565.682 438.704C557.153 434.46 548.596 430.272 540.013 426.138C537.664 425.01 529.406 420.937 527.414 420.748C518.4 419.894 506.317 420.545 497.127 420.534C491.428 421.238 484.475 421.091 478.706 420.948C466.543 420.775 429.881 443.804 416.629 446.022C388.997 450.647 358.654 390.78 379.476 370.865C381.629 368.806 383.663 367.673 386.268 366.424C388.221 365.853 390.161 365.265 392.132 364.756L393.046 364.947C394.757 365.216 394.56 365.301 395.95 366.108C405.273 365.264 413.094 371.135 421.765 373.445C423.337 372.757 425.029 371.959 426.635 371.396C430.66 385.191 434.993 406.771 448.332 413.693C462.056 420.814 475.494 414.618 480.113 400.168C494.304 405.202 500.789 405.293 515.107 402.003C517.995 407.305 522.421 413.679 528.697 415.112C558.937 422.019 561.705 390.373 568.761 370.542C571.162 371.488 573.004 372.179 575.506 372.939C584.134 371.221 594.868 364.565 601.87 366.362C603.179 366.848 604.983 365.997 606.03 365.158L606.613 364.714Z"></path><path fill="#222223" d="M613.705 367.168C619.437 370.906 623.463 375.002 624.909 382.025C627.887 396.491 621.964 413.405 614.065 425.424C608.143 434.435 594.983 450.072 582.608 446.318C577.437 444.749 570.677 441.169 565.682 438.704C557.153 434.46 548.596 430.272 540.013 426.138C537.664 425.01 529.406 420.937 527.414 420.748C518.4 419.894 506.317 420.545 497.127 420.534C496.084 420.436 494.701 420.443 493.625 420.415L493.226 419.879L492.829 420.321L492.3 420.151L493.638 420.365L493.859 419.774C496.271 419.601 525.321 418.94 526.037 419.193C538.027 423.435 566.737 438.097 578.106 443.568C573.771 433.582 572.589 426.938 574.385 416.042C577.569 396.717 595.485 364.922 619.413 372.321C616.925 370.619 615.103 369.12 612.21 368.145C612.784 367.75 613.131 367.522 613.705 367.168Z"></path><path fill="#C3C3C3" d="M585.501 446.286C581.582 444.866 578.782 443.209 577.151 438.961C568.546 416.544 583.122 384.575 603.782 373.679C610.276 370.255 621.014 371.314 623.041 379.339C626.859 391.793 622.966 406.729 617.142 417.968C611.397 429.055 600.044 444.219 586.825 446.219C586.209 446.554 586.157 446.52 585.501 446.286Z"></path><path fill="#222223" d="M478.706 420.948C466.543 420.775 429.881 443.804 416.629 446.022C388.997 450.647 358.654 390.78 379.476 370.865C381.629 368.806 383.663 367.673 386.268 366.424C386.617 366.894 386.961 367.366 387.302 367.841L384.36 368.664C386.161 369.768 386.58 369.14 388.512 370.161C401.985 374.268 410.351 382.992 416.72 395.219C425.371 411.83 428.751 428.323 418.195 444.577C430.973 440.68 444.977 432.579 457.472 427.407C463.28 425.002 474.384 418.147 480.945 420.335L478.706 420.948Z"></path><path fill="#727376" d="M384.36 368.664C386.161 369.768 386.58 369.14 388.512 370.161C388.019 370.152 382.216 370.314 382.137 369.885L382.158 369.868L382.497 369.919L382.524 369.288C383.143 369.057 383.713 368.802 384.36 368.664Z"></path><path fill="#C3C3C3" d="M383.959 371.096C408.919 369.506 431.916 417.46 421.038 438.435C419.149 442.079 417.704 444.085 413.894 445.466C384.664 446.166 357.868 376.506 383.959 371.096Z"></path><path fill="#191B20" d="M606.613 364.714C609.622 365.339 610.956 365.884 613.705 367.168C613.131 367.522 612.784 367.75 612.21 368.145C608.666 368.94 605.9 369.387 602.286 370.685C600.395 371.365 595.967 374.404 594.166 374.348C593.948 374.293 593.719 374.025 593.648 373.839C592.284 370.275 599.838 367.131 601.87 366.362C603.179 366.848 604.983 365.997 606.03 365.158L606.613 364.714Z"></path><path fill="#191B20" d="M386.268 366.424C388.221 365.853 390.161 365.265 392.132 364.756L393.046 364.947C394.757 365.216 394.56 365.301 395.95 366.108C396.816 366.498 410.927 372.084 404.255 373.996C403.335 374.26 399.994 371.9 399.206 371.603C395.409 369.58 391.428 368.828 387.302 367.841C386.961 367.366 386.617 366.894 386.268 366.424Z"></path><path fill="#7E7F81" d="M501.928 125.262C516.028 114.439 536.253 118.861 547.373 131.944C547.665 132.137 547.644 132.203 547.839 132.555C557.527 143.878 554.975 162.531 543.935 171.932C543.587 172.228 543.158 172.306 542.741 172.415C541.605 171.837 542.004 172.28 541.36 171.253L539.787 171.014C541.399 172.776 542.768 174.211 544.184 176.151C546.25 178.241 548.831 181.882 550.245 184.476L550.631 185.155C551.282 185.765 551.251 185.72 551.562 186.556L552.821 188.945C553.816 189.669 555.522 193.722 555.864 195.189C570.168 229.469 546.501 257.939 518.668 275.489C527.737 265.032 533.447 253.106 522.624 241.045C522.161 240.763 522.269 240.841 521.933 240.365C511.829 233.063 500.736 229.767 488.208 231.666C477.948 233.22 472.403 237.635 464.16 242.859C463.942 242.967 463.918 243.038 463.754 243.22C456.006 255.525 447.234 264.192 458.392 278.46C459.064 278.841 459.114 278.902 459.593 279.55L461.547 281.232C461.989 281.413 461.957 281.519 462.27 282.038C462.93 282.233 462.883 282.219 463.483 282.564C465.267 283.396 467.425 284.522 469.262 285.06C469.777 285.307 470.265 285.546 470.805 285.762C471.154 285.901 471.674 286.132 471.811 286.528C471.827 286.599 471.781 286.7 471.728 286.72C470.634 287.131 466.003 286.449 464.831 286.337C454.311 286.723 433.606 277.955 425.747 270.347C408.66 253.807 409.814 238.257 408.886 217.663C408.397 218.956 408.466 218.487 408.406 219.845C406.65 225.246 392.938 217.88 389.759 215.734C366.052 199.727 378.839 163.094 404.68 158.528C411.463 157.33 418.553 158.535 424.228 162.523C426.397 164.086 427.352 164.955 428.931 167.109C429.856 168.693 429.642 167.839 429.42 169.797L429.46 170.632L432.4 168.124C432.761 167.672 432.648 167.741 433.127 167.507C449.244 152.309 472.132 147.572 493.515 148.504L492.621 147.683L491.799 147.036C489.768 140.401 496.356 129.704 501.324 125.669C501.6 125.42 501.587 125.41 501.928 125.262Z"></path><path fill="#191B20" d="M408.406 219.845C406.65 225.246 392.938 217.88 389.759 215.734C366.052 199.727 378.839 163.094 404.68 158.528C411.463 157.33 418.553 158.535 424.228 162.523C426.397 164.086 427.352 164.955 428.931 167.109C429.856 168.693 429.642 167.839 429.42 169.797L429.46 170.632C413.589 186.681 412.147 196.559 408.886 217.663C408.397 218.956 408.466 218.487 408.406 219.845Z"></path><path fill="#7E7F81" d="M408.406 219.845C406.65 225.246 392.938 217.88 389.759 215.734C366.052 199.727 378.839 163.094 404.68 158.528C411.463 157.33 418.553 158.535 424.228 162.523C426.397 164.086 427.352 164.955 428.931 167.109C429.856 168.693 429.642 167.839 429.42 169.797C421.923 167.16 411.711 165.555 404.878 169.871C383.245 183.537 385.531 209.518 408.406 219.845Z"></path><path fill="#727376" d="M424.228 162.523C426.397 164.086 427.352 164.955 428.931 167.109C427.62 166.163 425.839 164.581 424.84 163.292L424.228 162.523Z"></path><path fill="#191B20" d="M501.928 125.262C516.028 114.439 536.253 118.861 547.373 131.944C547.665 132.137 547.644 132.203 547.839 132.555C557.527 143.878 554.975 162.531 543.935 171.932C543.587 172.228 543.158 172.306 542.741 172.415C541.605 171.837 542.004 172.28 541.36 171.253L539.787 171.014C527.244 158.728 511.171 150.217 493.515 148.504L492.621 147.683L491.799 147.036C489.768 140.401 496.356 129.704 501.324 125.669C501.6 125.42 501.587 125.41 501.928 125.262Z"></path><path fill="#7E7F81" d="M501.928 125.262C516.028 114.439 536.253 118.861 547.373 131.944C547.665 132.137 547.644 132.203 547.839 132.555C557.527 143.878 554.975 162.531 543.935 171.932C543.587 172.228 543.158 172.306 542.741 172.415C541.605 171.837 542.004 172.28 541.36 171.253C550.128 150.148 536.311 129.239 512.257 132.129C503.294 133.206 497.231 140.383 492.621 147.683L491.799 147.036C489.768 140.401 496.356 129.704 501.324 125.669C501.6 125.42 501.587 125.41 501.928 125.262Z"></path><path fill="#191B20" d="M463.754 243.22C452.777 249.182 444.148 238.799 449.854 229.888C456.91 218.867 474.518 230.591 464.788 242.1L464.16 242.859C463.942 242.967 463.918 243.038 463.754 243.22Z"></path><path fill="#8C8B90" d="M464.831 286.337C467.048 285.654 467.038 286.092 469.262 285.06C469.777 285.307 470.265 285.546 470.805 285.762C471.154 285.901 471.674 286.132 471.811 286.528C471.827 286.599 471.781 286.7 471.728 286.72C470.634 287.131 466.003 286.449 464.831 286.337Z"></path><path fill="#5F6062" d="M544.184 176.151C546.25 178.241 548.831 181.882 550.245 184.476C548.993 183.674 548.24 182.131 547.39 180.858L544.184 176.151Z"></path><path fill="#5F6062" d="M552.821 188.945C553.816 189.669 555.522 193.722 555.864 195.189C555.144 194.096 553.108 190.192 552.821 188.945Z"></path><path fill="#727376" d="M458.392 278.46C459.064 278.841 459.114 278.902 459.593 279.55C458.772 279.337 458.729 279.246 458.392 278.46Z"></path><path fill="#191B20" d="M507.391 209.363C510.914 208.693 514.525 209.978 516.833 212.724C519.141 215.469 519.787 219.246 518.522 222.602C517.257 225.958 514.278 228.37 510.732 228.908C505.389 229.719 500.38 226.102 499.469 220.775C498.559 215.448 502.082 210.373 507.391 209.363Z"></path><path fill="#C3C3C3" d="M492.715 289.156C516.682 287.183 532.944 301.339 540.065 323.477C535.311 336.876 528.531 350.355 523.286 363.647C518.021 376.992 511.667 386.128 514.905 400.959C510.477 401.994 507.109 402.674 502.618 403.344C494.899 403.465 487.54 401.78 480.383 399.03C484.212 385.225 476.41 374.162 471.181 362.065C465.706 349.4 459.589 336.706 455.123 323.65C461.42 305.22 472.637 292.141 492.715 289.156Z"></path><path fill="#7E7F81" d="M490.529 287.856C503.597 284.522 515.991 279.019 527.212 271.173C528.802 270.062 528.116 270.167 530.182 269.317L531.003 269.804C532.915 271.145 534.399 272.661 535.971 274.385C537.647 275.157 542.888 280.773 544.147 282.397L546.422 284.944C547.465 285.602 548.899 287.549 549.549 288.604C551.298 290.866 552.978 292.939 554.436 295.413C555.436 296.224 555.962 297.46 556.626 298.538C568.078 316.289 575.959 336.343 571.227 357.671C569.323 365.643 566.657 373.356 563.965 381.123C560.196 391.768 558.615 404.186 548.503 410.96C538.416 417.719 524.309 415.404 517.984 404.86C510.031 391.6 520.624 373.623 525.78 361.057C530.803 348.813 536.252 337.185 540.792 324.768C542.379 320.599 544.74 316.446 546.101 312.532L545.094 311.534L545.759 310.601C543.619 313.948 542.211 318.319 540.76 322.059C537.839 314.664 535.892 310.466 531.122 304.051C530.842 303.875 530.862 303.816 530.697 303.484L525.461 298.327C525.139 298.15 525.118 298.182 524.944 297.903C512.52 288.675 505.287 288.053 490.529 287.856Z"></path><path fill="#5F6062" d="M535.971 274.385C537.647 275.157 542.888 280.773 544.147 282.397C542.851 281.47 536.805 275.607 535.971 274.385Z"></path><path fill="#727376" d="M531.003 269.804C532.915 271.145 534.399 272.661 535.971 274.385C533.348 272.725 533.045 272.204 531.003 269.804Z"></path><path fill="#5F6062" d="M546.422 284.944C547.465 285.602 548.899 287.549 549.549 288.604C548.483 288.234 546.813 285.944 546.422 284.944Z"></path><path fill="#5F6062" d="M554.436 295.413C555.436 296.224 555.962 297.46 556.626 298.538C555.408 297.409 555.016 297.017 554.436 295.413Z"></path><path fill="#7E7F81" d="M452.203 285.075C463.367 288.802 478.44 289.128 490.089 288.31C470.339 294.189 461.922 303.245 454.309 322.275C453.216 319.384 449.282 308.233 447.625 306.6L447.158 306.963C447.244 308.873 451.731 318.511 452.638 321.229C459.819 342.734 473.634 366.351 479.85 387.62C482.905 398.074 472.268 416.874 460.695 415.01C436.462 415.368 433.505 387.355 427.615 369.874C425.985 365.034 425.159 358.466 424.851 353.384C423.967 351.908 424.482 344.681 424.945 342.719C426.098 322.346 437.962 299.438 452.203 285.075Z"></path><path fill="#5F6062" d="M424.851 353.384C423.967 351.908 424.482 344.681 424.945 342.719C424.989 343.749 424.986 352.406 424.851 353.384Z"></path><path fill="#C3C3C3" d="M492.88 232.183C500.891 231.442 512.566 234.552 518.774 239.084C537.561 252.802 522.861 276.114 505.465 281.889C498.732 284.124 495.183 285.645 488.117 286.837C478.949 288.316 469.162 286.072 461.794 280.319C449.689 270.867 453.846 256.642 462.554 246.668C470.769 237.26 480.59 233.123 492.88 232.183Z"></path><path fill="#191B20" d="M490.268 239.181C495.9 238.478 505.044 239.067 504.542 246.753C504.232 251.482 496.243 258.356 492.731 261.402C490.142 261.692 489.581 261.823 486.957 261.69C462.036 259.811 466.601 241.93 490.268 239.181Z"></path><path fill="#191B20" d="M790.565 573.708C790.819 572.439 791.128 571.182 791.491 569.94C796.004 554.177 812.773 529.239 825.182 555.378C828.071 564.697 826.623 567.997 828.103 574.882C839.792 578.549 850.479 584.86 859.335 593.324C878.955 612.296 878.108 631.924 878.556 657.274C879.679 657.401 880.797 657.566 881.909 657.771C887.204 658.785 897.778 662.637 900.343 667.342C906.776 679.147 894.154 693.479 884.436 698.954C872.704 705.563 863.517 706.525 850.968 703.218C841.05 707.394 835.993 708.902 825.658 711.302C848.367 743.19 864.678 776.226 858.752 817.02C858.241 820.538 857.058 824.139 856.303 827.681C860.735 832.843 878.581 821.047 886.685 819.013C890.002 818.194 893.457 818.102 896.812 818.743C902.38 819.819 906.617 823.108 909.714 827.788C915.277 836.194 915.326 846.619 913.461 856.183C910.3 872.382 900.344 891.124 886.313 900.437C881.221 903.817 874.504 906.617 868.317 906.381C856.947 905.947 819.264 885.904 805.584 881.91C800.871 880.534 795.324 881.339 790.444 881.312C785.854 881.299 781.276 880.846 776.772 879.96C762.053 876.996 751.667 869.177 743.36 856.794C716.247 855.859 707.32 828.106 731.558 813.827C728.926 774.381 742.458 733.252 767.392 702.65C766.551 702.116 765.721 701.566 764.9 701.002C728.809 676.12 721.176 624.067 753.682 592.87C763.243 583.693 777.433 575.936 790.565 573.708Z"></path><path fill="#7E7F81" d="M790.438 574.256C788.609 587.71 788.547 602.744 800.429 611.856C800.687 612.142 800.71 612.111 801.076 612.311C803.592 613.377 804.673 613.968 807.426 613.671C819.072 609.201 826.579 587.345 828.049 575.898C836.399 578.427 844.218 582.46 851.12 587.798C851.769 588.099 851.707 588.03 852.137 588.566C853.087 589.218 853.949 589.685 854.64 590.602C857.378 593.436 859.936 596.236 862.97 598.778C864.145 599.79 865.363 601.283 866.02 602.705C879.531 622.028 876.45 636.271 877.773 657.813C870.629 658.314 865.19 660.265 860.562 665.958C850.247 678.648 852.179 691.963 861.803 703.742C859.51 704.664 853.839 703.055 851.316 702.359C851.049 702.357 850.782 702.354 850.516 702.352C843.626 705.028 835.298 708.589 828.052 709.703C827.588 709.884 827.688 709.869 827.192 709.854C797.985 715.903 767.473 708.222 748.666 684.176C748.374 683.912 748.384 683.955 748.208 683.624C743.391 677.877 739.161 669.098 737.172 661.891C725.162 618.353 749.579 586.217 790.438 574.256Z"></path><path fill="#5F6062" d="M862.97 598.778C864.145 599.79 865.363 601.283 866.02 602.705C865.101 602.221 863.255 599.846 862.97 598.778Z"></path><path fill="#5F6062" d="M852.137 588.566C853.087 589.218 853.949 589.685 854.64 590.602C853.385 590.221 853.029 589.548 852.137 588.566Z"></path><path fill="#191B20" d="M858.438 640.372C861.771 639.625 865.248 640.737 867.53 643.279C869.811 645.821 870.542 649.398 869.441 652.631C868.339 655.865 865.577 658.251 862.218 658.872C857.158 659.807 852.281 656.518 851.25 651.477C850.22 646.435 853.416 641.497 858.438 640.372Z"></path><path fill="#7E7F81" d="M805.607 548.468C809.403 545.265 812.593 543.553 817.204 546.071C818.999 548.209 819.262 548.476 821.398 550.167C822.649 552.338 823.43 553.499 824.211 555.908L825.182 555.378C828.071 564.697 826.623 567.997 828.103 574.882L828.049 575.898C826.579 587.345 819.072 609.201 807.426 613.671L807.702 612.774C795.137 613.167 790.478 596.177 790.57 586.131C790.691 573.161 794.788 557.88 804.89 549.1C805.251 548.663 805.143 548.735 805.607 548.468Z"></path><path fill="#191B20" d="M807.702 612.774C807.117 609.67 805.879 606.603 805.29 603.14C803.626 592.548 805.987 580.286 809.618 570.321C811.629 564.8 816.768 552.773 824.211 555.908L825.182 555.378C828.071 564.697 826.623 567.997 828.103 574.882L828.049 575.898C826.579 587.345 819.072 609.201 807.426 613.671L807.702 612.774Z"></path><path fill="#5F6062" d="M854.64 590.602C857.425 592.548 860.993 596.034 862.97 598.778C859.936 596.236 857.378 593.436 854.64 590.602Z"></path><path fill="#727376" d="M817.204 546.071C819.395 547.432 819.826 547.978 821.398 550.167C819.262 548.476 818.999 548.209 817.204 546.071Z"></path><path fill="#7E7F81" d="M768.525 703.259C782.358 710.233 797.754 713.529 813.229 712.828C815.811 712.723 820.56 711.965 823.48 711.68C825.292 712.463 824.977 712.618 826.377 714.414C826.679 714.698 826.695 714.792 826.921 715.169L827.823 716.311C828.212 716.704 828.208 716.704 828.593 717.182L829.817 718.954C830.25 719.286 830.474 719.636 830.846 720.087C830.58 722.441 827.064 727.382 826.122 729.981C822.911 738.846 821.15 752.052 822.005 761.305C815.914 747.988 815.081 726.491 798.977 720.066C788.95 716.065 779.164 722.745 774.972 731.768C770.154 742.14 767.202 755.818 769.486 767.187C773.511 787.214 778.577 806.924 782.806 826.905C784.042 832.747 785.579 838.54 788.228 843.918C800.921 869.757 830.999 864.881 837.103 837.509C837.766 834.532 837.448 827.029 838.065 825.375C839.41 824.77 840.235 824.918 841.704 824.945C842.211 825.025 842.12 825.002 842.574 825.261C848.097 825.803 855.419 828.82 860.399 831.117C868.367 827.525 890.122 816.123 897.719 820.339L895.039 821.245C892.33 822.141 883.043 826.248 883.054 829.467C888.306 829.995 895.983 817.401 904.483 823.618C905.189 824.055 905.177 823.974 905.587 824.61L907.033 826.209L906.89 826.911C899.909 827.669 897.504 827.896 891.42 831.982C873.882 843.764 858.792 882.122 872.274 901.018C873.003 901.328 873.133 901.432 873.553 902.125L875.628 903.316L875.749 904.053C874.136 904.956 871.342 905.01 869.394 905.198C868.215 905.758 867.217 905.549 865.971 905.315C861.695 904.155 855.031 901.297 850.825 899.58C841.799 895.909 832.793 892.187 823.81 888.412C811.137 883.053 806.508 879.666 792.313 880.456C780.205 881.13 764.707 877.218 755.479 868.738C754.285 868.185 753.998 867.69 753.085 866.691C738.581 855.913 732.721 823.633 732.034 806.42C730.702 773.052 746.108 728.103 768.525 703.259Z"></path><path fill="#5F6062" d="M865.971 905.315C867.651 905.026 867.763 904.931 869.394 905.198C868.215 905.758 867.217 905.549 865.971 905.315Z"></path><path fill="#727376" d="M753.085 866.691L753.8 867.141C754.515 867.567 755.122 867.964 755.479 868.738C754.285 868.185 753.998 867.69 753.085 866.691Z"></path><path fill="#5F6062" d="M904.483 823.618C905.189 824.055 905.177 823.974 905.587 824.61C904.761 824.407 904.744 824.429 904.483 823.618Z"></path><path fill="#5F6062" d="M872.274 901.018C873.003 901.328 873.133 901.432 873.553 902.125C872.715 901.837 872.532 901.894 872.274 901.018Z"></path><path fill="#7E7F81" d="M789.217 720.617C796.929 720.066 803.932 721.721 807.992 729.035C821.179 752.795 824.746 782.228 832.484 808.054C835.997 819.779 838.485 831.897 833.752 843.285C830.477 851.164 825.786 856.205 817.505 858.805C787.099 865.62 783.092 821.216 778.307 801.002C773.065 778.86 765.008 755.666 775.557 733.851C778.951 726.831 781.897 723.322 789.217 720.617Z"></path><path fill="#C3C3C3" d="M831.433 721.346C834.598 725.978 837.62 730.53 840.284 735.472C840.701 735.714 840.683 735.915 840.791 736.412C842.079 738.664 843.221 740.609 844.321 742.973C844.742 743.395 844.762 743.328 844.806 743.865C845.035 744.309 845.254 744.757 845.464 745.209C856.421 768.476 864.025 802.672 855.02 827.389C848.327 824.989 844.29 824.253 837.301 823.94C832.532 788.825 810.75 757.015 831.433 721.346Z"></path><path fill="#C3C3C3" d="M902.426 828.104C919.121 826.742 912.983 857.212 909.566 866.114C903.708 881.378 895.046 895.667 879.758 902.836C873.471 902.872 870.352 898.259 869.216 892.506C866.166 877.059 870.613 859.917 879.159 846.903C884.756 838.38 892.123 830.302 902.426 828.104Z"></path><path fill="#C3C3C3" d="M878.888 658.749C883.844 658.852 887.481 660.519 891.936 662.466C890.977 663.167 889.286 664.19 888.7 665.187C884.609 672.151 893.859 679.602 898.608 682.57C892.864 693.653 887.304 696.438 876.589 701.681C871.578 703.203 868.998 703.725 863.7 704.081C852.83 692.62 851.233 679.147 861.564 666.28C866.472 660.167 871.516 659.376 878.888 658.749Z"></path><path fill="#7E7F81" d="M718.741 832.235C720.261 823.153 724.02 819.807 731.441 814.991L732.523 823.248C732.761 825.012 733.218 826.751 733.57 828.494L734.06 830.744C734.212 831.43 734.447 832.31 734.617 832.993L735.128 834.991C737.473 843.831 739.404 847.523 742.705 855.476C731.004 855.393 720.589 849.642 718.723 837.211C718.344 835.509 718.486 833.948 718.741 832.235Z"></path><path fill="#5F6062" d="M718.723 837.211C718.344 835.509 718.486 833.948 718.741 832.235C718.907 834.179 718.984 835.255 718.723 837.211Z"></path><path fill="#222223" d="M794.705 270.988C796.033 263.912 799.398 258.176 805.459 254.054C811.91 249.692 819.865 248.159 827.475 249.813C856.393 255.909 869.423 290.194 840.418 308.569C843.727 314.632 845.823 319.483 848.541 325.853C852.227 324.749 854.935 323.803 858.526 322.414C859.11 320.488 860.114 316.718 861.283 315.254C874.814 298.304 893.184 304.359 900.415 322.437C918.158 330.607 932.582 343.328 932.339 364.515C939.761 364.291 951.292 363.917 958.248 366.02C966.717 368.579 975.609 377.034 977.532 385.978C981.421 389.652 985.333 393.595 988.678 397.644C992.343 402.079 997.314 407.516 997.498 413.44C997.666 418.816 993.947 426.136 987.96 426.457C976.802 427.432 965.205 426.797 953.961 426.967C938.361 427.021 922.812 427.044 907.234 426.876C901.101 426.81 893.958 423.136 889.83 418.601C888.963 417.635 888.119 416.648 887.3 415.642C880.419 417.689 873.414 419.296 866.329 420.453C863.112 420.988 855.386 421.841 852.606 422.753C847.414 424.457 841.961 428.337 836.388 430.342C816.673 437.436 789.511 437.71 770.461 428.407C766.759 426.599 763.281 423.36 760.767 420.217C758.121 421.11 755.017 421.532 752.258 422.126L750.007 422.629C739.406 424.929 726.327 426.75 715.511 426.548C701.28 428.128 687.031 429.846 674.987 420.437C664.802 413.045 662.024 397.914 670.831 388.342C678.937 379.533 697.581 376.883 709.073 376.13C699.017 363.214 697.686 349.889 699.423 334.003C699.668 331.937 700.344 328.15 699.836 326.32C691.041 324.249 683.508 319.184 678.981 311.264C660.016 278.082 714.592 242.325 733.94 278.507L734.483 278.577C754.58 268.46 772.705 265.419 794.705 270.988Z"></path><path fill="#7E7F81" d="M699.836 326.32C691.041 324.249 683.508 319.184 678.981 311.264C660.016 278.082 714.592 242.325 733.94 278.507L734.483 278.577L734.5 279.825C754.258 268.885 774.128 266.437 795.859 272.245C808.185 276.408 820.682 285.052 829.091 294.934C832.652 299.118 834.71 302.764 837.834 306.825C839.825 309.934 840.73 311.6 842.323 314.937C842.441 315.507 842.414 315.492 842.806 315.913C849.347 329.566 852.375 341.836 847.342 356.742C842.384 371.426 833.729 377.22 823.818 387.392C818.62 387.47 813.223 387.628 808.042 387.563C812.347 378.371 812.212 372.448 806.086 364.053C805.226 363.523 804.454 362.455 803.799 361.665C793.922 353.981 782.934 350.163 770.329 351.461C766.757 351.829 761.26 353.345 758.558 355.69L758.239 355.975C747.492 362.27 738.841 369.674 737.093 382.796C744.416 387.394 747.809 391.021 750.312 399.592C750.378 400.232 750.351 403.425 750.91 403.728C752.808 404.755 756.723 404.775 758.801 404.494L759.744 405.089C758.298 411.132 759.619 414.279 761.999 419.995L760.767 420.217C758.121 421.11 755.017 421.532 752.258 422.126L750.007 422.629C739.406 424.929 726.327 426.75 715.511 426.548C701.28 428.128 687.031 429.846 674.987 420.437C664.802 413.045 662.024 397.914 670.831 388.342C678.937 379.533 697.581 376.883 709.073 376.13C699.017 363.214 697.686 349.889 699.423 334.003C699.668 331.937 700.344 328.15 699.836 326.32Z"></path><path fill="#7E7F81" d="M699.423 334.003L700.437 333.935C698.404 350.108 700.703 367.843 713.587 379.226C723.538 379.323 726.934 378.861 736.227 382.624C737.857 374.532 739.282 371.248 745.03 364.903C745.768 364.089 748.764 361.162 749.216 360.501C749.993 359.585 751.69 357.8 752.959 357.828C755.185 356.827 755.889 356.41 758.239 355.975C747.492 362.27 738.841 369.674 737.093 382.796C744.416 387.394 747.809 391.021 750.312 399.592C750.378 400.232 750.351 403.425 750.91 403.728C752.808 404.755 756.723 404.775 758.801 404.494L759.744 405.089C758.298 411.132 759.619 414.279 761.999 419.995L760.767 420.217C758.121 421.11 755.017 421.532 752.258 422.126L750.007 422.629C739.406 424.929 726.327 426.75 715.511 426.548C701.28 428.128 687.031 429.846 674.987 420.437C664.802 413.045 662.024 397.914 670.831 388.342C678.937 379.533 697.581 376.883 709.073 376.13C699.017 363.214 697.686 349.889 699.423 334.003Z"></path><path fill="#191B20" d="M750.312 399.592C750.378 400.232 750.351 403.425 750.91 403.728C752.808 404.755 756.723 404.775 758.801 404.494L759.744 405.089C758.298 411.132 759.619 414.279 761.999 419.995L760.767 420.217C758.121 421.11 755.017 421.532 752.258 422.126L750.007 422.629C739.406 424.929 726.327 426.75 715.511 426.548L715.411 425.441C724.144 424.033 734.82 420.562 742.232 415.477C746.425 412.601 748.28 409.136 749.076 404.158C750.299 402.331 749.915 402.37 750.231 400.138L750.312 399.592Z"></path><path fill="#222223" d="M699.423 334.003L700.437 333.935C698.404 350.108 700.703 367.843 713.587 379.226C723.538 379.323 726.934 378.861 736.227 382.624C737.857 374.532 739.282 371.248 745.03 364.903C745.768 364.089 748.764 361.162 749.216 360.501C749.993 359.585 751.69 357.8 752.959 357.828C755.185 356.827 755.889 356.41 758.239 355.975C747.492 362.27 738.841 369.674 737.093 382.796C744.416 387.394 747.809 391.021 750.312 399.592L750.231 400.138C749.915 402.37 750.299 402.331 749.076 404.158C748.95 397.184 748.413 395.756 744.223 389.976C743.07 388.474 742.558 387.948 741.024 386.778C736.235 383.357 728.272 380.446 722.526 380.577C708.477 380.898 684.994 376.59 673.899 386.813C673.09 387.196 672.95 387.359 672.458 388.131C663.291 397.835 664.711 410.386 674.601 418.917C682.388 425.633 692.638 427.751 702.68 426.887C706.932 426.487 711.177 426.004 715.411 425.441L715.511 426.548C701.28 428.128 687.031 429.846 674.987 420.437C664.802 413.045 662.024 397.914 670.831 388.342C678.937 379.533 697.581 376.883 709.073 376.13C699.017 363.214 697.686 349.889 699.423 334.003Z"></path><path fill="#5F6062" d="M702.877 377.72C708.59 376.521 715.127 378.844 707.259 378.938C706.109 378.912 698.159 379.038 697.959 378.668L698.029 378.614L698.046 378.557C699.472 377.813 701.178 377.922 702.877 377.72Z"></path><path fill="#727376" d="M672.458 388.131C672.95 387.359 673.09 387.196 673.899 386.813C673.606 387.713 673.328 387.748 672.458 388.131Z"></path><path fill="#5F6062" d="M741.024 386.778C742.558 387.948 743.07 388.474 744.223 389.976C742.768 388.901 742.134 388.226 741.024 386.778Z"></path><path fill="#7E7F81" d="M699.836 326.32C691.041 324.249 683.508 319.184 678.981 311.264C660.016 278.082 714.592 242.325 733.94 278.507L734.483 278.577L734.5 279.825C720.224 290.1 712.64 297.63 705.613 314.508C703.527 319.519 701.789 324.573 700.933 329.983C700.73 331.295 700.565 332.613 700.437 333.935L699.423 334.003C699.668 331.937 700.344 328.15 699.836 326.32Z"></path><path fill="#191B20" d="M699.753 324.836C699.535 323.336 691.656 315.531 690.175 310.224C684.612 290.281 700.95 270.978 721.654 275.232C724.62 275.842 731.587 279.413 733.046 278.945L733.94 278.507L734.483 278.577L734.5 279.825C720.224 290.1 712.64 297.63 705.613 314.508C703.527 319.519 701.789 324.573 700.933 329.983C700.73 331.295 700.565 332.613 700.437 333.935L699.423 334.003C699.668 331.937 700.344 328.15 699.836 326.32L699.753 324.836Z"></path><path fill="#222223" d="M699.836 326.32C691.041 324.249 683.508 319.184 678.981 311.264C660.016 278.082 714.592 242.325 733.94 278.507L733.046 278.945C732.368 277.311 731.47 276.058 730.515 274.574C730.074 273.755 730.057 273.742 729.386 273.135C727.945 272.02 727.401 271.417 726.13 270.06C725.641 269.563 725.707 269.598 725.067 269.312C718.289 264.922 711.469 263.326 703.38 265.09C698.846 266.052 694.575 267.986 690.861 270.758C690.547 270.904 690.58 270.91 690.322 271.174C677.772 280.596 670.694 298.687 680.871 312.508C681.23 312.991 681.606 313.461 681.997 313.919C682.263 314.351 682.235 314.303 682.607 314.652C686.846 319.368 693.24 324.376 699.753 324.836L699.836 326.32Z"></path><path fill="#5F6062" d="M726.13 270.06C727.945 271.343 728.016 271.41 729.386 273.135C727.945 272.02 727.401 271.417 726.13 270.06Z"></path><path fill="#5F6062" d="M729.386 273.135C730.057 273.742 730.074 273.755 730.515 274.574C729.493 274.402 729.707 274.269 729.386 273.135Z"></path><path fill="#191B20" d="M749.216 360.501C733.983 361.469 731.561 344.459 743.259 340.562C751.081 337.957 759.597 348.092 752.959 357.828C751.69 357.8 749.993 359.585 749.216 360.501Z"></path><path fill="#727376" d="M803.799 361.665L804.187 361.954C805.261 362.682 805.924 362.799 806.086 364.053C805.226 363.523 804.454 362.455 803.799 361.665Z"></path><path fill="#191B20" d="M796.08 334.039C801.344 332.46 806.891 335.457 808.454 340.726C810.018 345.995 807.004 351.532 801.73 353.079C796.479 354.62 790.971 351.622 789.414 346.376C787.857 341.129 790.838 335.612 796.08 334.039Z"></path><path fill="#7E7F81" d="M848.757 327.144C871.535 318.065 894.898 316.042 915.195 332.049C917.311 334.451 919.76 337.034 922.305 338.978C929.249 348.143 929.661 353.195 931.714 364.133C931.921 364.263 932.121 364.406 932.339 364.515C939.761 364.291 951.292 363.917 958.248 366.02C966.717 368.579 975.609 377.034 977.532 385.978C977.193 386.156 976.854 386.333 976.514 386.511L977.392 387.752C978.131 388.041 978.176 387.981 978.57 388.578L980.577 390.33C982.096 391.262 983.569 393.01 984.678 394.411C989.289 399.81 993.097 403.863 996.228 410.311C996.162 412.334 996.139 414.856 996.25 416.866C994.621 422.754 991.055 425.828 984.969 425.977C963.175 426.819 939.179 425.526 917.643 426.12C889.553 426.895 887.178 416.19 880.865 392.472C880.085 389.539 878.826 383.764 877.271 381.167L876.947 381.418C877.259 385.649 880.561 395.662 881.93 400.186C876.691 402.911 871.916 406.332 867.138 409.771C868.781 404.933 870.148 400.804 869.003 395.674C863.922 372.888 840.27 383.863 825.449 387.491C832.136 380.209 839.289 375.622 844.552 365.837C851.746 352.465 852.533 341.422 848.757 327.144Z"></path><path fill="#191B20" d="M931.714 364.133C931.921 364.263 932.121 364.406 932.339 364.515C939.761 364.291 951.292 363.917 958.248 366.02C966.717 368.579 975.609 377.034 977.532 385.978C977.193 386.156 976.854 386.333 976.514 386.511C975.43 386.208 966.278 380.013 964.067 378.86C954.987 374.125 951.57 375.644 941.986 377.391C940.849 377.598 933.216 377.405 931.622 377.369C931.657 373.788 931.311 367.258 931.714 364.133Z"></path><path fill="#5F6062" d="M980.577 390.33C982.096 391.262 983.569 393.01 984.678 394.411L984.286 394.113C983.321 393.391 981.017 391.328 980.577 390.33Z"></path><path fill="#727376" d="M977.392 387.752C978.131 388.041 978.176 387.981 978.57 388.578C977.812 388.352 977.864 388.388 977.392 387.752Z"></path><path fill="#7E7F81" d="M759.744 405.089C767.807 378.622 808.496 392.89 828.788 387.979C842.334 385.598 858.437 375.209 866.904 392.451C868.475 395.65 869.159 402.122 867.834 405.232C854.753 435.937 780.543 444.949 761.999 419.995C759.619 414.279 758.298 411.132 759.744 405.089Z"></path><path fill="#C3C3C3" d="M758.558 355.69C764.025 353.833 768.636 352.229 774.465 352.095C792.783 351.676 818.798 365.764 806.914 387.575C790.288 387.576 764.796 384.034 758.801 404.494C756.723 404.775 752.808 404.755 750.91 403.728C750.351 403.425 750.378 400.232 750.312 399.592C747.809 391.021 744.416 387.394 737.093 382.796C738.841 369.674 747.492 362.27 758.239 355.975L758.558 355.69Z"></path><path fill="#191B20" d="M771.052 360.19C793.911 357.187 799.957 369.848 777.348 381.236C770.771 382.379 750.302 375.118 758.938 364.987C762.207 361.152 766.394 360.765 771.052 360.19Z"></path><path fill="#191B20" d="M796.396 271.742C798.503 270.708 800.257 268.473 802.255 267.004C821.695 252.719 848.823 269.127 844.572 293.008C843.574 298.614 841.447 301.861 838.595 306.481L837.834 306.825C834.71 302.764 832.652 299.118 829.091 294.934C820.682 285.052 808.185 276.408 795.859 272.245L796.396 271.742Z"></path><path fill="#7E7F81" d="M796.396 271.742C794.191 260.723 809.428 251.695 818.886 250.212C820.627 250.383 821.18 250.525 822.881 250.295C849.367 251.844 869.084 284.084 845.199 304.042C843.61 305.37 841.806 307.007 839.682 307.22L838.595 306.481C841.447 301.861 843.574 298.614 844.572 293.008C848.823 269.127 821.695 252.719 802.255 267.004C800.257 268.473 798.503 270.708 796.396 271.742Z"></path><path fill="#727376" d="M915.195 332.049C917.733 333.802 920.392 336.571 922.305 338.978C919.76 337.034 917.311 334.451 915.195 332.049Z"></path><path fill="#5F6062" d="M818.886 250.212C820.322 249.983 821.678 249.538 822.881 250.295C821.18 250.525 820.627 250.383 818.886 250.212Z"></path><path fill="#727376" d="M996.228 410.311C996.558 412.893 996.62 414.293 996.25 416.866C996.139 414.856 996.162 412.334 996.228 410.311Z"></path><path fill="#7E7F81" d="M866.344 311.248C870.555 307.702 876.02 306.007 881.499 306.547C890.49 307.349 895.597 313.864 898.886 321.568L899.072 321.995C885.507 318.045 873.436 317.952 859.805 321.84C861.198 316.857 861.604 315.176 865.796 311.658C866.096 311.37 866.001 311.437 866.344 311.248Z"></path><path fill="#C3C3C3" d="M881.843 401.466C881.908 401.529 885.701 412.573 886.938 414.845C884.206 415.532 881.467 416.193 878.722 416.827C873.049 418.093 866.964 419.006 861.39 420.344C859.018 420.543 857.346 420.858 855.077 421.13C860.134 417.582 863.043 415.269 867.48 410.923C870.906 407.568 877.178 404.202 881.391 401.734L881.843 401.466Z"></path><path fill="#7E7F81" d="M562.423 725.27L563.398 725.853C564.403 726.987 564.8 726.999 566.088 727.803C574.365 728.727 580.88 730.681 585.946 737.862C604.415 764.039 606.397 797.361 599.562 827.476C610.478 834.239 616.891 844.616 608.77 856.972C602.273 866.857 589.472 869.411 578.348 869.816C565.913 882.187 554.795 888.813 536.724 888.764C519.297 888.717 506.537 880.54 492.425 871.27C484.031 885.576 470.85 908.467 449.245 896.506C441.867 892.421 439.648 884.5 438.024 876.686L437.936 876.255C422.098 861.161 405.063 822.974 428.415 807.301C430.331 805.749 434.043 804.737 436.47 803.965C428.231 789.503 437.14 778.766 448.605 770.206C452.474 767.317 457.402 764.922 460.844 761.593L461.514 761.023C463.047 761.019 462.705 761.002 464.243 760.606L465.132 759.862C465.764 761.324 465.492 761.568 467.086 762.048C473.576 764.002 482.633 761.404 489.101 760.596C498.006 759.861 512.126 758.701 520.959 759.692C523.665 757.457 531.151 748.687 531.993 745.325L532.17 744.654L532.923 744.924C534.078 745.633 535.014 743.826 536.021 743.048C543.546 737.234 550.854 729.19 560.012 726.17C561.262 725.758 561.246 725.883 562.423 725.27Z"></path><path fill="#191B20" d="M566.088 727.803C574.365 728.727 580.88 730.681 585.946 737.862C604.415 764.039 606.397 797.361 599.562 827.476C610.478 834.239 616.891 844.616 608.77 856.972C602.273 866.857 589.472 869.411 578.348 869.816C565.913 882.187 554.795 888.813 536.724 888.764C519.297 888.717 506.537 880.54 492.425 871.27C484.031 885.576 470.85 908.467 449.245 896.506C441.867 892.421 439.648 884.5 438.024 876.686L437.936 876.255C422.098 861.161 405.063 822.974 428.415 807.301L428.418 807.864C433.778 808.255 442.717 810.625 446.183 814.868C448.045 813.704 448.7 813.328 450.791 812.474L450.769 811.942L451.569 811.454C461.093 801.678 469.414 795.151 483.979 794.928C497.85 794.717 515.928 804.001 528.18 810.538C541.675 800.487 554.613 789.284 567.957 779.038C572.443 775.594 581.829 766.7 586.516 765.246C579.271 772.662 565.66 782.741 557.178 789.436C549.125 795.793 537.844 805.354 529.461 811.176C533.11 813.135 554.101 823.973 555.195 826.129L554.842 826.578C552.596 825.848 538.533 817.605 535.529 816.027C515.468 805.486 488.76 788.884 466.058 800.91C453.728 807.441 446.365 820.367 442.487 833C440.593 839.227 439.367 845.637 438.83 852.122C438.623 852.51 438.675 852.612 438.663 853.073C438.057 869.368 436.172 893.771 456.619 898.342C457.002 898.495 457.054 898.445 457.487 898.431C476.534 899.442 483.884 883.614 492.231 869.442C513.283 886.654 543.222 896.144 566.956 878.33C567.305 878.172 567.37 878.206 567.567 877.907C569.03 877.066 570.072 876.062 571.345 874.963C572.612 874.009 574.771 872.244 575.569 870.861C587.131 859.544 594.026 841.682 598.668 826.532C598.855 826.11 598.838 826.169 598.899 825.711C607.222 800.586 601.213 758.952 584.769 737.96C582.754 736.401 581.388 734.965 579.678 733.046C575.692 729.604 571.055 728.865 566.003 729.059L566.088 727.803Z"></path><path fill="#727376" d="M428.418 807.864C433.778 808.255 442.717 810.625 446.183 814.868L447.992 817.002C446.772 818.74 446.887 819.597 444.948 817.549C439.002 811.266 432.49 810.838 424.591 811.397C425.978 810.038 426.914 809.073 428.418 807.864Z"></path><path fill="#5F6062" d="M446.183 814.868C448.045 813.704 448.7 813.328 450.791 812.474C449.921 814.189 449.131 815.443 447.992 817.002L446.183 814.868Z"></path><path fill="#5F6062" d="M579.678 733.046C582.088 734.64 582.918 735.686 584.769 737.96C582.754 736.401 581.388 734.965 579.678 733.046Z"></path><path fill="#C3C3C3" d="M418.239 825.164C420.849 806.852 435.939 809.365 446.153 820.111C437.725 840.126 436.191 853.092 437.663 874.902C428.317 864.08 418.397 848.694 418.353 833.866C417.431 832.722 417.965 830.913 418.067 829.268L418.105 827.967L418.003 827.444C417.794 826.354 417.651 826.031 418.239 825.164Z"></path><path fill="#5F6062" d="M418.067 829.268C418.347 831.222 418.551 831.964 418.353 833.866C417.431 832.722 417.965 830.913 418.067 829.268Z"></path><path fill="#727376" d="M418.239 825.164C418.498 826.405 418.518 826.731 418.105 827.967L418.003 827.444C417.794 826.354 417.651 826.031 418.239 825.164Z"></path><path fill="#7E7F81" d="M579.165 868.508C591.758 852.421 592.79 847.149 599.433 828.743C601.414 829.843 602.955 830.546 604.564 832.177L605.174 832.775C605.603 832.977 605.582 832.958 605.811 833.379C606.645 834.253 607.136 834.85 607.877 835.801C608.142 836.136 608.122 836.073 608.279 836.421C612.342 843.125 612.077 851.293 607.236 857.503C600.26 866.453 589.711 868.265 579.165 868.508Z"></path><path fill="#191B20" d="M465.132 759.862C465.764 761.324 465.492 761.568 467.086 762.048C473.576 764.002 482.633 761.404 489.101 760.596L489.48 761.667C475.82 763.823 467.665 765.472 455.96 773.626C443.388 782.385 440.658 800.172 451.569 811.454L450.769 811.942L450.791 812.474C448.7 813.328 448.045 813.704 446.183 814.868C442.717 810.625 433.778 808.255 428.418 807.864L428.415 807.301C430.331 805.749 434.043 804.737 436.47 803.965C428.231 789.503 437.14 778.766 448.605 770.206C452.474 767.317 457.402 764.922 460.844 761.593L461.514 761.023C463.047 761.019 462.705 761.002 464.243 760.606L465.132 759.862Z"></path><path fill="#191B20" d="M562.423 725.27L563.398 725.853C564.403 726.987 564.8 726.999 566.088 727.803L566.003 729.059C552.205 733.229 542.227 743.681 532.776 754.097C526.808 760.674 529.535 761.921 521.409 760.939C521.183 760.457 521.145 760.262 520.959 759.692C523.665 757.457 531.151 748.687 531.993 745.325L532.17 744.654L532.923 744.924C534.078 745.633 535.014 743.826 536.021 743.048C543.546 737.234 550.854 729.19 560.012 726.17C561.262 725.758 561.246 725.883 562.423 725.27Z"></path><path fill="#191B20" d="M489.101 760.596C498.006 759.861 512.126 758.701 520.959 759.692C521.145 760.262 521.183 760.457 521.409 760.939C515.923 760.782 512.569 760.378 506.734 760.568C504.811 760.94 504.503 761.083 502.608 760.847L495.342 761.158C494.399 761.024 494.408 760.932 493.624 761.352L489.48 761.667L489.101 760.596Z"></path><path fill="#5F6062" d="M502.608 760.847C503.798 760.225 505.325 760.526 506.734 760.568C504.811 760.94 504.503 761.083 502.608 760.847Z"></path><path fill="#727376" d="M571.345 874.963C572.181 873.865 574.265 871.117 575.569 870.861C574.771 872.244 572.612 874.009 571.345 874.963Z"></path><path fill="#5F6062" d="M493.624 761.352C494.408 760.932 494.399 761.024 495.342 761.158C494.58 761.594 494.556 761.472 493.624 761.352Z"></path><path fill="#7E7F81" d="M490.451 623.526C490.446 606.159 499.277 592.39 517.322 589.756C527.097 588.306 537.046 590.819 544.96 596.738C560.45 608.331 560.268 627.184 549.193 641.788C560.177 650.261 567.462 657.478 571.532 671.27C576.869 689.358 572.312 709.664 563.398 725.853L562.423 725.27C561.246 725.883 561.262 725.758 560.012 726.17C550.854 729.19 543.546 737.234 536.021 743.048C535.014 743.826 534.078 745.633 532.923 744.924L532.17 744.654L531.993 745.325C531.151 748.687 523.665 757.457 520.959 759.692C512.126 758.701 498.006 759.861 489.101 760.596C482.633 761.404 473.576 764.002 467.086 762.048C465.492 761.568 465.764 761.324 465.132 759.862L464.243 760.606C462.705 761.002 463.047 761.019 461.514 761.023L460.844 761.593C434.854 750.597 428.157 737.625 422.031 711C404.219 708.934 389.111 700.182 390.571 679.609C391.899 660.877 409.54 641.301 429.475 646.423C432.338 647.158 435.074 648.737 437.666 650.166C452.278 633.512 468.439 625.659 490.451 623.526Z"></path><path fill="#C3C3C3" d="M472.006 727.065C493.133 708.61 532.971 709.571 532.17 744.654L531.993 745.325C531.151 748.687 523.665 757.457 520.959 759.692C512.126 758.701 498.006 759.861 489.101 760.596C482.633 761.404 473.576 764.002 467.086 762.048C465.492 761.568 465.764 761.324 465.132 759.862C461.411 748.404 460.069 745.688 465.404 733.949C467.14 731.416 469.657 729.03 472.006 727.065Z"></path><path fill="#191B20" d="M492.554 723.077C505.024 722.658 502.037 732.525 497.337 739.762C495.539 742.531 494.981 744.634 492.562 747.224C487.127 748.042 486.316 748.101 480.692 747.991C476.674 747.186 472.12 746.805 471.15 741.993C469.021 731.421 484.511 724.847 492.554 723.077Z"></path><path fill="#191B20" d="M493.223 624.071C495.972 616.235 499.569 610.052 507.203 606.213C523.484 598.027 545.22 608.3 548.323 626.455C548.927 629.986 546.8 638.713 548.029 640.878L548.822 641.882L548.465 642.786C530.519 631.566 518.519 625.502 496.864 624.387C495.17 623.574 495.409 623.887 493.223 624.071Z"></path><path fill="#7E7F81" d="M493.223 624.071C487.653 619.942 495.065 605.497 498.661 601.16C503.846 594.913 511.363 591.063 519.462 590.507C537.147 589.145 554.502 599.682 555.677 618.601C555.45 619.909 555.621 622.722 555.773 624.089C555.153 629.697 552.587 637.35 548.029 640.878C546.8 638.713 548.927 629.986 548.323 626.455C545.22 608.3 523.484 598.027 507.203 606.213C499.569 610.052 495.972 616.235 493.223 624.071Z"></path><path fill="#191B20" d="M419.555 707.828C415.477 706.628 410.393 702.654 407.888 699.49C395.544 683.897 404.469 657.428 425.231 655.202C428.601 654.841 430.7 655.146 433.93 655.562L434.779 655.854C423.286 673.036 420.783 687.595 422.506 708.125L421.903 708.665C421.088 708.36 420.385 708.093 419.555 707.828Z"></path><path fill="#7E7F81" d="M419.039 709.89C413.061 708.564 408.161 707.179 402.966 703.813C373.275 684.576 406.844 630.357 436.805 651.184L433.93 655.562C430.7 655.146 428.601 654.841 425.231 655.202C404.469 657.428 395.544 683.897 407.888 699.49C410.393 702.654 415.477 706.628 419.555 707.828C419.355 708.444 419.191 709.24 419.039 709.89Z"></path><path fill="#222223" d="M490.451 623.526C490.446 606.159 499.277 592.39 517.322 589.756C527.097 588.306 537.046 590.819 544.96 596.738C560.45 608.331 560.268 627.184 549.193 641.788C560.177 650.261 567.462 657.478 571.532 671.27C576.869 689.358 572.312 709.664 563.398 725.853L562.423 725.27C566.363 718.267 570.622 706.989 571.662 699.021C571.813 698.57 571.81 698.651 571.8 698.184C574.284 687.804 572.059 674.13 567.815 664.302C567.675 663.477 567.592 663.468 567.083 662.742L566.759 661.931C566.558 661.488 566.565 661.469 566.336 661.123C565.861 660.307 565.188 659.355 564.656 658.552C563.776 657.123 562.312 654.825 560.986 653.768C558.844 652.02 556.082 649.126 554.139 647.08C553.265 646.13 552.699 645.809 551.624 645.09C551.172 644.586 551.22 644.598 550.617 644.29L548.465 642.786L548.822 641.882L548.029 640.878C552.587 637.35 555.153 629.697 555.773 624.089C555.621 622.722 555.45 619.909 555.677 618.601C554.502 599.682 537.147 589.145 519.462 590.507C511.363 591.063 503.846 594.913 498.661 601.16C495.065 605.497 487.653 619.942 493.223 624.071C495.409 623.887 495.17 623.574 496.864 624.387C493.181 624.51 489.41 624.525 485.799 625.204C485.293 625.175 485.385 625.173 484.892 625.326C477.303 626.093 469.872 628.607 462.985 631.816C462.622 631.916 462.665 631.919 462.343 632.151C449.991 638.515 443.075 644.509 434.779 655.854L433.93 655.562L436.805 651.184C406.844 630.357 373.275 684.576 402.966 703.813C408.161 707.179 413.061 708.564 419.039 709.89C419.191 709.24 419.355 708.444 419.555 707.828C420.385 708.093 421.088 708.36 421.903 708.665L422.506 708.125C424.475 718.001 429.258 736.386 436.541 743.717C438.566 745.47 440.518 747.232 442.106 749.419C448.651 755.919 455.159 756.912 461.514 761.023L460.844 761.593C434.854 750.597 428.157 737.625 422.031 711C404.219 708.934 389.111 700.182 390.571 679.609C391.899 660.877 409.54 641.301 429.475 646.423C432.338 647.158 435.074 648.737 437.666 650.166C452.278 633.512 468.439 625.659 490.451 623.526Z"></path><path fill="#727376" d="M419.555 707.828C420.385 708.093 421.088 708.36 421.903 708.665C420.724 709.667 420.577 709.653 419.039 709.89C419.191 709.24 419.355 708.444 419.555 707.828Z"></path><path fill="#727376" d="M436.541 743.717C438.566 745.47 440.518 747.232 442.106 749.419C439.864 747.809 438.14 745.959 436.541 743.717Z"></path><path fill="#5F6062" d="M554.139 647.08C556.637 648.824 559.119 651.377 560.986 653.768C558.844 652.02 556.082 649.126 554.139 647.08Z"></path><path fill="#727376" d="M555.677 618.601C556.156 619.814 556.084 622.827 555.773 624.089C555.621 622.722 555.45 619.909 555.677 618.601Z"></path><path fill="#191B20" d="M464.933 733.284C463.577 731.491 461.504 733.165 459.577 732.235C442.207 723.85 460.552 702.67 470.783 719.326C471.999 721.306 470.784 724.525 471.513 726.002L472.006 727.065C469.657 729.03 467.14 731.416 465.404 733.949L464.933 733.284Z"></path><path fill="#222223" d="M471.513 726.002C475.472 722.905 478.318 720.762 482.81 718.557C504.162 708.074 535.737 715.681 532.923 744.924L532.17 744.654C532.971 709.571 493.133 708.61 472.006 727.065L471.513 726.002Z"></path><path fill="#222223" d="M464.933 733.284L465.404 733.949C460.069 745.688 461.411 748.404 465.132 759.862L464.243 760.606C463.342 756.079 460.902 753.064 460.963 747.75C461.033 741.726 461.874 738.482 464.933 733.284Z"></path><path fill="#5F6062" d="M560.986 653.768C562.312 654.825 563.776 657.123 564.656 658.552C563.593 657.582 561.318 655.107 560.986 653.768Z"></path><path fill="#5F6062" d="M551.624 645.09C552.699 645.809 553.265 646.13 554.139 647.08C553.247 646.858 552.894 646.51 552.297 645.824L551.624 645.09Z"></path><path fill="#191B20" d="M504.029 689.733C509.719 688.644 515.246 692.27 516.513 697.923C517.78 703.576 514.331 709.214 508.721 710.659C504.931 711.635 500.91 710.47 498.229 707.619C495.548 704.768 494.632 700.683 495.84 696.96C497.047 693.238 500.185 690.468 504.029 689.733Z"></path></svg>